<svg width="89" height="27" viewBox="0 0 89 27" fill="none" xmlns="http://www.w3.org/2000/svg">
<g clip-path="url(#clip0_7_3)">
<path d="M81.6 13.1H78.5C76.5 13.1 75.4 14.6 75.4 17.2V26.5H69.4V13.1H66.9C64.9 13.1 63.8 14.6 63.8 17.2V26.5H57.8V8.1H63.8V10.9C64.8 8.7 66.1 8.1 68.1 8.1H75.4V10.9C76.4 8.7 77.7 8.1 79.7 8.1H81.7L81.6 13.1ZM56.4 18.7H44C44.3 20.8 45.6 21.9 47.7 21.9C49.3 21.9 50.4 21.2 50.8 20.1L56.1 21.6C54.8 24.8 51.6 26.7 47.7 26.7C41.2 26.7 38.2 21.6 38.2 17.2C38.2 12.9 40.8 7.8 47.3 7.8C54.2 7.8 56.5 13 56.5 16.9C56.5 17.8 56.5 18.3 56.4 18.7ZM50.7 15.2C50.6 13.6 49.4 12.2 47.4 12.2C45.5 12.2 44.4 13 44 15.2H50.7ZM27.8 26.5H33L39.6 8.2H33.6L30.4 18.9L27.2 8.1H21.2L27.8 26.5ZM3.4 26.5H9.3V13.1H15V26.5H20.9V8.1H9.3V7C9.3 5.8 10.2 5 11.5 5H15V0H10.6C6.3 0 3.4 2.7 3.4 6.6V8.1H0V13.1H3.4V26.5Z" fill="white"/>
<path d="M85.3001 27.0001C87.3001 27.0001 89.0001 25.3001 89.0001 23.3001C89.0001 21.3001 87.3001 19.6001 85.3001 19.6001C83.3001 19.6001 81.6001 21.3001 81.6001 23.3001C81.6001 25.3001 83.3001 27.0001 85.3001 27.0001Z" fill="#1DBF73"/>
</g>
<defs>
<clipPath id="clip0_7_3">
<rect width="89" height="27" fill="white"/>
</clipPath>
</defs>
</svg>
